<?xml version="1.0" encoding="utf-8"?>
<!-- Generator: Adobe Illustrator 25.4.1, SVG Export Plug-In . SVG Version: 6.00 Build 0)  -->
<svg version="1.1" id="Layer_1" xmlns="http://www.w3.org/2000/svg" xmlns:xlink="http://www.w3.org/1999/xlink" x="0px" y="0px"
	 viewBox="0 0 545.4 234.8" style="enable-background:new 0 0 545.4 234.8;" xml:space="preserve">
<path d="M136.6,68.6c0.1,3.4-6.1,1.8-8.1,3.7c-2.7,2.6-5.7,3.9-10.1,5.4c-3.1,1.1-6.5,2.5-10.2,2.2c-2.2-0.1-4.6-0.7-6.9-0.9
	c-2.3-0.2-4.5-0.5-6.8-1.1c-4.4-1.1-8.4-2.9-12.3-2.9c-0.1,1.8,2.2,3,4.1,4s4.8,2,6.9,1.7c1.4-0.2,2.3-1.4,3.7-0.7
	c-1.8,4.1-12.2,3.6-16,1.3c-1.7,1.2-5.3,2.9-8.5,1.7c0.4-1,1.4-1,1.6-2c0.7-3.6-5.3-4.3-8-2.7c-0.5-4.5,2.6-7.1,7-6.6
	c2-2.8,6-6.4,11.1-4.6c1.3,0.5,1.8,1.4,2.8,2c1.7,0.8,3.4,1.5,5.2,2.1c9.7,4.3,26.9,5.8,34.6-1.4C128.4,68.5,134.1,69.7,136.6,68.6
	L136.6,68.6L136.6,68.6z"/>
<path d="M141.5,139.7c-6.3-13.1-6.9-32,1.5-44.7c2.3-3.5,5.7-6.7,9.9-7.9c2.6-0.6,5.4-0.6,8,0.1c2.2,0.6,6.2,3.7,8.2,3.1
	c2.4-0.8,2.3-5.3,6.1-3c2.3,1.4,1.5,4.5,1.5,6.7c0,3.1,0.1,6.2,0.1,9.4c0,2.9,0.7,7.2-1.8,9.4c-5,4.5-5.7-4.1-6.4-7.2
	c-1.6-6.5-7.7-12.3-14.8-9.7c-14.1,5.1-12.5,49.4,6.2,45.8c7.7-1.5,7.6-8.8,11-14.1c2.2-3.3,5.4-3.3,6.4,0.9
	c0.7,3.3-0.7,7.4-2.2,10.3C168.4,152.4,148.7,154.5,141.5,139.7z"/>
<path d="M189.9,137.5c1.4,5.1,5.8,4,10.1,4c4.4-0.2,8.3-2.8,10-6.9c0.6-1.5,1.8-5.9,0.1-6.7c-1.4-0.6-5.2,0.8-6.8,1.1
	c-3.1,0.5-7,0.2-10,1.3C190.7,131.2,189.2,134.8,189.9,137.5z M184.9,127.6c3.3-4.7,8.8-5.7,14.1-6.1c3.2-0.3,11.8,0.4,12.1-4.1
	c0.2-3.6-3-6-6.2-6.2c-1.9-0.1-5.3-0.7-7.1,0s-1.6,4.5-2.3,6.2c-0.8,2.6-3.4,4.2-6,3.7c-5.7-0.7-6.8-7.4-3.5-11.4
	c2.2-2.7,6.1-6,9.7-6c2.8,0,5.6,0.1,8.4,0.1s4.9-0.2,7.4,1.5c3.8,2.4,6.4,6.4,7,10.8c0.3,2.8,0.2,5.6-0.2,8.4
	c-0.1,2.2-0.1,4.5,0,6.7c0,2.5-0.1,5.1,0,7.6c0.1,1.2,0.2,2.3,1.4,2.7c2.8,0.9,2.8-3.3,3.2-4.9c0.6-2.4,2.6-4.2,5-2.2
	c2.1,1.8,1.8,5.4,1.1,7.9c-1.4,5-5.8,8.6-11.1,7c-1.2-0.3-2.2-0.9-3.2-1.7c-0.8-0.7-1.1-2-2.1-2.6c-2.1-1.4-4.8,1.7-6.6,2.7
	c-3.6,2.2-6.9,2-10.9,2c-1.4,0.2-2.9,0-4.2-0.5c-2.5-1.2-4.7-3.1-6.2-5.4C182.1,139.4,181.8,131.9,184.9,127.6L184.9,127.6z"/>
<path d="M233.4,141.8c1.8-1.5,4-1.1,6.1-0.9c1.3,0.1,3.5,0.6,4.2-0.5s0.1-4.3,0.4-5.8c0.2-0.9,0.3-1.9,0.3-2.9
	c-0.1-4.4-0.1-8.7-0.4-13.1c-0.1-1.5,0.5-5.4-0.8-6.5c-0.9-0.7-4.2-0.3-5.5-0.4c-2.3-0.1-5-0.3-6-2.8c-0.9-2.2,0.2-4.8,2.4-5.7
	c1.9-0.6,4.8-0.1,6.8-0.1c2.4-0.1,5.6-0.2,7.8,1.1c1.8,1,1.3,3.2,2.7,4.2s3.6-1.7,4.9-2.5c2.2-1.6,4.8-2.6,7.5-2.9
	c5-0.3,10.2,2.4,11.6,7.5c1.2,4.3-0.5,9.9-5.5,10.3c-2.6,0.2-4.1-1-5.2-3.3c-0.4-1-0.8-2.1-0.9-3.2c-0.1-0.7,0-2.9-0.5-3.5
	c-1.9-2.2-8.4,5.8-9.5,7.3c-1.7,2.1-2.5,4.8-2.3,7.5c-0.1,2.3-0.1,4.6,0,6.9c0.2,1.7,0.5,3.4,0.6,5.1c0.1,2.7,0.8,3.4,3.8,3.2
	c2.6-0.2,5.6-0.8,7.4,1.5c1.4,1.9,1,4.7-0.9,6.1c-0.1,0.1-0.2,0.1-0.3,0.2c-2.6,1.6-6.4,1.2-9.2,0.9c-1.9-0.1-3.8-0.1-5.7,0.2
	c-2.9,0.2-5.9,0-8.8,0c-1.7,0.1-3.3-0.4-4.7-1.4C231.8,146.9,231.3,143.6,233.4,141.8z"/>
<path d="M289.5,124.9c1.8,4.7,7,7.7,11.8,5.4s6.1-8.3,4.5-12.9C301.9,106.5,285.6,114.4,289.5,124.9z M290.7,158
	c3.2,1.3,6.6,1.2,10,1.1c3.1-0.1,6.3,0.1,9.2-0.9c2.5-0.8,6.6-2.6,5.9-5.9c-0.6-2.9-4.8-3.9-7.3-4.5c-5.3-1.2-11.9-1.7-17.2-0.4
	c-2.9,0.7-5.5,2.1-5.8,5.4C285.5,155.5,288.5,157.2,290.7,158z M278.9,149.8c0.6-1.2,2.1-2.4,2.4-3.8c0.4-1.8-1.5-4.1-2-5.7
	c-1-4.1,1.6-7.1,3.9-10.1c2-2.7-0.5-7.5-0.3-10.7c0.2-3.5,1.5-6.8,3.8-9.5c2.4-2.8,5.5-4.8,9-5.7c3.6-0.9,6.5,1.8,10,2.1
	c2.8,0.2,4.4-2.1,7.2-2.4c3.8-0.4,7.6,1.3,9.8,4.5c1.8,2.8,1.8,8.7-2,10c-1.8,0.6-3.7,0.2-5.2-0.9c-0.9-0.7-2.6-4.5-3.7-4.5
	c0,2.6,1,4.9,1.2,7.4c0.2,3.1-0.3,6.1-1.6,8.9c-2,4.3-7.1,8.1-12,8.4c-3.5,0.2-12.2-5.4-13.2,0.4c-0.4,2.6,0.8,3.3,3.4,3.1
	c3.4-0.3,6.4-1.6,9.8-1.6c3.2,0.1,6.3,0.5,9.4,1.2c5.1,0.9,10.2,4.3,11.7,6c3.4,4.1,2.7,10.4-0.6,14.3c-3.7,4.4-9.9,5.9-15.5,6.3
	c-6.4,0.4-13-0.1-18.6-3.2c-2.6-1.4-5.2-2.2-6.7-5C277.8,156.2,277.7,152.8,278.9,149.8L278.9,149.8z"/>
<path d="M334.3,130.9c0.3,2.5,0.8,5,2.5,6.9c1.1,1.2,2.5,3,4,3.7c2,0.9,5,0.6,7.2,0.6c3.8,0,6.1-1,8.3-4.2c2.1-2.9,2.7-6.7,2.8-10.2
	s-0.4-9.4-2.9-12.2s-8.9-4.8-12.8-3.8c-3.2,0.8-6.2,4.6-7.6,7.4C334.3,122.8,333.7,126.9,334.3,130.9z M327.9,119.4
	c2.5-9.9,10.7-16.8,21.2-16c4.2,0.3,9.4,2.7,12.1,6.1c1.3,1.9,2.4,3.9,3.3,6c1.2,2.2,2.1,4.6,2.6,7.1c0.9,4.3-0.4,8-1.4,12.2
	c-1,4.5-3.2,8.6-6.4,11.9c-3.1,3.1-7.6,6.2-12.3,5.5c-1.6-0.3-3-1.4-4.6-1.7c-1.8-0.3-3.6-0.9-5.3-1.7
	C327,143.5,325.3,129.4,327.9,119.4z"/>
<path d="M405.4,121.2c-0.5-3.2-3.2-8.6-6.7-9.4c-2-0.2-3.9-0.3-5.9-0.1c-5.1,0.1-8.8,7.4-8.9,12c-0.1,4.6-0.4,8.3,1.7,12.4
	c1.1,2.2,2.8,5,5.4,5.2c2.2,0.2,4.4,0.2,6.6,0c2.6-0.3,5.1-3.8,6.4-6.1C406.2,131.2,406.1,125.6,405.4,121.2z M383.6,146.8
	c-2,0.4-2.2,3.1-5.1,2.4c-2.5-0.6-2.9-3.2-2.8-5.5c0.1-2.7,1-5.3,1-8.1c-0.1-1.1-0.3-2.1-0.5-3.1c-0.5-4.4,0-9.2,0-13.6v-18.4
	c0-0.8,0.4-3.1,0-3.8c-0.7-1.2-2.4-0.3-3.4-0.3c-2.2,0.1-5.8-0.3-7.1-2.4c-2.2-3.3,1.4-6.5,4.6-6.5c2.8,0,5.6-0.2,8.4,0
	c6.8,0.5,5,9,5,13.7c0,1.2-0.7,5.3,0.6,6c1.8,0.9,4.2-2.2,5.5-3.1c2.8-2,9.5-1.2,11.7-0.3c1.8,0.7,3.5,3,4.7,4.4
	c2.1,2.2,3.7,4.7,4.9,7.4c2.5,6.6,2.6,13.8,0.1,20.4c-2,5.6-5.7,11-11.4,13.3c-3.1,1.2-6.5,1.3-9.7,0.3c-1.4-0.3-2.7-0.8-4-1.5
	C385.3,147.4,384.8,146.5,383.6,146.8L383.6,146.8z"/>
<path d="M430,89c5.9-6.2,14.9,5.2,8.4,10S424.9,94.4,430,89z M417.8,142.2c1.5-2.6,5.9-1.7,8.4-1.7c1.1,0,2.9,0.4,3.9,0
	c1.4-0.5,1-2.6,1.1-3.9c0.4-5.4,0.5-10.8,0.5-16.2v-4.4c0-0.6,0.3-2.4,0-2.9c-0.6-0.9-4.4-0.3-5.6-0.3c-3.2,0-6.7,0.7-7.8-3.2
	c-1.9-6.9,7.5-5.4,11.3-5.3c3.5,0.1,9.4-1.5,9.8,3.7c0.1,1.8,0,3.6,0,5.3V133c0,2-0.4,4.4,0,6.4c0.4,1.7,1.9,1.1,3.5,1.1
	c2.7,0,6.7-0.9,8.5,1.6c2,2.8,1.5,7.1-2.2,7.3c-6.3,0.4-12.8,0-19.1,0c-2.9,0-5.8,0-8.8,0C417.3,149.3,415.6,145.9,417.8,142.2z"/>
<path d="M476.7,129.5c-1,0.9-3,2.6-3.4,3.9c-0.3,1.1,0,2.8,0,3.9c-0.1,1-0.1,2,0,3c0.8,1.9,4.5,2,6.3,2.5c1.2,0.3,2.2,1.4,3.5,1.3
	c2.5-0.3,3.2-2.7,2.4-4.6c-1.2-2.5-2.6-4.9-4.2-7.2C480.2,130.7,478.8,127.5,476.7,129.5z M455.7,144.5c1.2-5.4,5-2.5,8.8-3.7
	c1.5-0.5,1.1-1.1,1.1-2.7v-6.4c0-5,0.4-9.9,0.4-14.9v-12.7c0-2,0.5-4.8-0.1-6.7c-1-3.2-5.5-0.8-7.8-2.6c-3-2.2-0.7-6,2-6.9
	c1.9-0.7,3.4,0,5.3-0.1c2.6,0,5.1-0.7,7,1.9c1.1,1.6,0.7,3.4,0.8,5.2s0.4,3.4,0.4,5.1c0,1.5-0.2,2.9-0.3,4.4c-0.2,3.7,0,7.5,0,11.2
	c0,1.2-0.8,7.2,0.5,7.7s5.7-5.2,6.6-6c1-1,2.1-2.1,3.1-3.2c0.3-0.3,0.5-0.6,0.7-0.9c0.7-1.3,0.5-1-0.6-2.2c-2.2-2.3-2.6-5.7,1.3-6.5
	c2.2-0.4,4.9-0.1,7.2-0.1c3,0,6.7-0.1,9.3,1.7c1.3,0.9,2,2.5,1.6,4.1c-0.4,2-2.2,2.3-3.9,2.4c-3.7,0.2-5.8,1.4-8.4,4.2
	c-1.1,1.2-2.3,2.3-3.7,3.3c-1.4,1-2.7,1.7-2.7,3.6c-0.1,3,3,6,4.9,8.1c1,1.1,1.9,2.3,2.7,3.5c0.9,1.4,1.3,3.4,2.6,4.4
	c1.6,1.2,4.1,0.4,6.1,0.9c1.7,0.2,3.3,1.3,4.2,2.8c2.1,3.8-0.7,6.2-4.4,6.5c-3.4,0.2-6.8,0.2-10.2,0c-3.5-0.2-6.5-2.4-9.8-0.9
	s-7.1,0.4-10.6,0.6C465.7,149.9,454.1,151.6,455.7,144.5L455.7,144.5z"/>
<path d="M515.4,121c0,0.5,17.7,0.4,19.4,0.3c1.4-0.1,2-0.1,2.1-1.8c0.3-3.6-3.2-5.9-6.2-6.8C524.4,110.9,515.4,113.2,515.4,121z
	 M507.7,122.2c1-6.7,4.2-12.8,10.3-16.1c2.6-1.6,5.6-2.3,8.7-2.2c3.3,0.1,6.5,1.2,9.2,3.1c5.5,4,9,9.6,9.5,16.5
	c0.5,6.5-10.7,4.4-14.6,4.4c-3,0-6,0-9,0.1c-1.4,0-2.8,0.1-4.2,0.1c-2,0.1-2.8-0.3-3,1.8c-0.5,6.9,6.3,13.4,13.2,12.5
	c2.2-0.3,5.6-1.6,7.2-3.3c2-2.1,3.3-6.1,6.8-6c4.2,0.1,3,4.8,1.6,7.2c-1.5,3-3.9,5.5-6.8,7.1c-7.1,3.6-16.5,3.1-22.6-2.3
	C507.6,139.5,506.5,130.4,507.7,122.2L507.7,122.2z"/>
<path d="M377.3,178.7c-0.7-2.6-0.7-5.3,0-7.9c1.3-3.4,5.2-5.1,8.6-3.8c1.7,0.7,3.1,2,3.8,3.8c0.7,2.6,0.7,5.3,0,7.9
	c-1.3,3.4-5.2,5.1-8.6,3.8C379.4,181.8,378,180.4,377.3,178.7z M387,177.9c0.3-1,0.4-2.1,0.4-3.2c0.1-1.1-0.1-2.1-0.4-3.2
	c-0.7-1.9-2.9-2.9-4.8-2.2c-1,0.4-1.8,1.2-2.2,2.2c-0.3,1-0.4,2.1-0.4,3.2c0,1.1,0.1,2.2,0.4,3.2c0.7,1.9,2.9,2.9,4.8,2.2
	C385.8,179.7,386.6,178.9,387,177.9L387,177.9z"/>
<path d="M403.6,166.9c0.6,0,1.1,0.5,1.1,1.1s-0.5,1.1-1.1,1.1h-2.3c-0.1,0-0.2,0-0.2,0.1c0,0,0,0,0,0.1v11.9c0,0.8-0.6,1.4-1.4,1.4
	c-0.8,0-1.4-0.6-1.4-1.4c0,0,0,0,0,0v-11.9c0-0.1,0-0.2-0.1-0.2c0,0,0,0-0.1,0h-0.9c-0.6,0-1.1-0.5-1.1-1.1s0.5-1.1,1.1-1.1h0.9
	c0.1,0,0.2,0,0.2-0.1c0,0,0,0,0-0.1v-1.4c0-3.8,1.6-5,4.8-5h0.2c0.7-0.1,1.3,0.4,1.4,1c0,0.1,0,0.1,0,0.2c0,0.7-0.5,1.2-1.2,1.3
	c-0.1,0-0.1,0-0.2,0c-2,0-2.4,0.4-2.4,2.3v1.5c0,0.1,0,0.2,0.1,0.2c0,0,0,0,0.1,0L403.6,166.9L403.6,166.9z"/>
<path d="M422.3,181.2c-0.4-0.2-0.6-0.7-0.6-1.1c0-0.7,0.6-1.2,1.3-1.2c0,0,0,0,0,0c0.3,0,0.6,0.1,0.9,0.3c1.3,0.9,2.8,1.3,4.4,1.4
	c2.2,0,3.4-1,3.4-2.4s-0.6-2-3.1-2.2l-1.6-0.2c-3.1-0.3-4.7-1.9-4.7-4.4c0-3,2.1-4.8,5.8-4.8c1.6,0,3.2,0.4,4.7,1.1
	c0.5,0.2,0.8,0.6,0.8,1.1c0,0.6-0.5,1.2-1.2,1.2l0,0c-0.3,0-0.7-0.1-1-0.3c-1.1-0.5-2.3-0.8-3.5-0.8c-2,0-3,0.9-3,2.1
	s0.7,1.9,3.1,2.1l1.6,0.2c3.3,0.4,4.7,1.9,4.7,4.4c0,3.1-2.2,5.1-6.4,5.1C425.9,182.9,424,182.3,422.3,181.2z"/>
<path d="M454.7,181.3l-3.2-10.3h-0.1l-3.3,10.3c-0.1,0.9-1,1.5-1.9,1.4c-0.7-0.1-1.3-0.7-1.4-1.4l-4.1-12.7
	c-0.1-0.2-0.1-0.4-0.1-0.6c0-0.7,0.5-1.3,1.2-1.3c0,0,0.1,0,0.1,0c0.7,0,1.2,0.5,1.3,1.2l3.3,10.6h0.1l3.3-10.4
	c0.1-0.8,0.8-1.4,1.7-1.3c0.7,0.1,1.2,0.6,1.3,1.3l3.3,10.4h0.1l3.2-10.6c0.1-0.7,0.7-1.2,1.3-1.2c0.7,0,1.3,0.5,1.3,1.2
	c0,0,0,0.1,0,0.1c0,0.2,0,0.4-0.1,0.6l-4.1,12.7c0,0.9-0.7,1.6-1.7,1.6C455.4,182.9,454.7,182.2,454.7,181.3z"/>
<path d="M469.1,178.6c-0.4-1.3-0.6-2.6-0.5-3.9c-0.1-1.3,0.1-2.7,0.5-3.9c0.8-2.6,3.3-4.4,6.1-4.2c3.1,0,5.3,1.5,6.1,4.2
	c0.4,1.2,0.6,2.5,0.5,3.8c0,0.6-0.4,1-1,1c0,0-0.1,0-0.1,0h-9.2c-0.1,0-0.2,0-0.2,0.1c0,0,0,0,0,0.1c0,0.6,0.1,1.3,0.3,1.9
	c0.5,1.7,2.2,2.8,4,2.7c1.4,0,2.7-0.5,3.8-1.3c0.3-0.2,0.6-0.4,1-0.4c0.6,0,1.1,0.5,1.1,1.1c0,0,0,0,0,0c0,0.4-0.1,0.7-0.4,1
	c-1.5,1.4-3.5,2.2-5.6,2.1C472.2,182.9,470,181.4,469.1,178.6z M478.8,173.4c0.1,0,0.2,0,0.2-0.1c0,0,0,0,0-0.1
	c0-0.6-0.1-1.2-0.2-1.8c-0.8-2-3-3-5-2.2c-1,0.4-1.8,1.2-2.2,2.2c-0.2,0.6-0.2,1.2-0.2,1.8c0,0.1,0,0.2,0.1,0.2c0,0,0,0,0.1,0H478.8
	z"/>
<path d="M499,181.2v-0.4l0,0c-0.8,1.2-2.1,2.1-4.4,2.1c-2.5,0.1-4.7-1.5-5.4-3.9c-0.7-2.8-0.7-5.7,0-8.5c0.7-2.4,2.9-4,5.4-3.9
	c2.4,0,3.7,0.9,4.4,2.1l0,0v-7c0-0.8,0.6-1.4,1.4-1.4c0.8,0,1.4,0.6,1.4,1.4c0,0,0,0,0,0v19.6c0,0.8-0.6,1.4-1.4,1.4
	C499.6,182.6,499,182,499,181.2L499,181.2z M498.6,177.9c0.5-2.1,0.5-4.3,0-6.4c-0.7-1.9-2.7-2.9-4.7-2.2c-1,0.4-1.9,1.2-2.2,2.2
	c-0.5,2.1-0.5,4.3,0,6.4c0.7,1.9,2.8,2.9,4.7,2.2C497.4,179.7,498.2,178.9,498.6,177.9L498.6,177.9z"/>
<path d="M509.9,178.6c-0.4-1.3-0.6-2.6-0.5-3.9c-0.1-1.3,0.1-2.7,0.5-3.9c0.8-2.6,3.3-4.4,6.1-4.2c3.1,0,5.3,1.5,6.1,4.2
	c0.4,1.2,0.6,2.5,0.5,3.8c0,0.6-0.4,1-1,1c0,0-0.1,0-0.1,0h-9.2c-0.1,0-0.2,0-0.2,0.1c0,0,0,0,0,0.1c0,0.6,0.1,1.3,0.3,1.9
	c0.5,1.7,2.2,2.8,4,2.7c1.4,0,2.7-0.5,3.8-1.3c0.3-0.2,0.6-0.4,1-0.4c0.6,0,1.1,0.5,1.1,1.1c0,0,0,0,0,0.1c0,0.4-0.1,0.7-0.4,1
	c-1.5,1.4-3.5,2.2-5.6,2.1C513,182.9,510.8,181.4,509.9,178.6z M519.6,173.4c0.1,0,0.2,0,0.2-0.1c0,0,0,0,0-0.1
	c0-0.6-0.1-1.2-0.2-1.8c-0.8-2-3-3-5-2.2c-1,0.4-1.8,1.2-2.2,2.2c-0.2,0.6-0.2,1.2-0.2,1.8c0,0.1,0,0.2,0.1,0.2c0,0,0,0,0.1,0H519.6
	L519.6,173.4z"/>
<path d="M530.3,168.2c0-0.8,0.6-1.4,1.4-1.4c0.8,0,1.4,0.6,1.4,1.4c0,0,0,0,0,0v0.5l0,0c1-1.4,2.6-2.2,4.4-2.1
	c3.4,0,5.4,2.3,5.4,5.9v8.8c0,0.8-0.6,1.4-1.4,1.4c-0.8,0-1.4-0.6-1.4-1.4c0,0,0,0,0,0v-8.2c0-2.5-1.1-4-3.5-4
	c-1.9-0.1-3.6,1.5-3.6,3.4c0,0.1,0,0.3,0,0.4v8.3c0,0.8-0.6,1.4-1.4,1.4c-0.8,0-1.4-0.6-1.4-1.4c0,0,0,0,0,0L530.3,168.2
	L530.3,168.2z"/>
<path d="M25,135.6c9.5-1,16.4-4.5,24.1-7c7.2-2.4,16.4-5.4,25.6-5.7c8.9-0.2,16.8,1.3,21.6,6.1c1.8-1.6,5.2-10.7-2.1-14
	s-14.1-2.8-21.4-1.8c-8.6,1.1-16.2,4.1-23.3,6.4c-10.8,3.4-20.5,9.3-34.6,9.9c-4.6,0.2-9.2-0.5-14-0.3C4.7,135.6,15,136.7,25,135.6z
	"/>
<path d="M137.4,205.1c4.6-7.4,15.4-25.1,15.8-35.4c-5.5,8.3-12,15.9-19.4,22.7c-8,7.6-20.4,16.2-33,19.1c1.3-7.4,12.7-16.6,11-16.2
	c-15.7,5.1-34.4,16.5-41.3,22.6c0.2-7.1,13.7-17.4,12-17c-11.2,3-15.8,4.6-29.3,13.5c-0.2-7.9,16.6-21,16.2-20.9
	c-10.3,1.5-22,11-28.6,15.9c0.9-3.3,1.9-7.6,6.1-10.7c-6.1,1.3-9.2,3.8-13.8,5.7c4.9-8.6,13.1-14.7,23.7-17.5s33.2-4.7,40.5-7.2
	c4-1.3,8.1-3.5,10.6-6.4c1.2-1.4,5.2-6.1,4.8-11.7c-0.1-1.1-3.1,7.6-15.4,9.1c-1.6,3.9-7.6,6-13.4,5.4c4.7-1.3,9.7-3.2,13.4-6.5
	c2.7-2.4,5.7-5.7,6.1-10.1c0.7-7.5-3.4-11.9-7.6-15.2c4.3-1.4,7.6-4.6,10.9-7.6s5.8-6.3,6.2-12.1c0.7-8.4-2.6-15.6-6.4-20.8
	c-1.2-1.7-3-3.9-4.8-4.4s-4.3-0.1-6.5,0c-6.4,0.2-11.8-1.2-17.2-2.7c-9-2.1-17.8-7.7-18.8-8.8c-4.2-4.7-1.2-15.7-3-16.2
	c-0.8,2.8-7.5,11.9-8.8,10.2c-2.6-3.5-0.2-6.8,1.6-9.4c1.6-2.2,3.7-4.1,6-5.6c8.2-5,52-11.2,92.5-3.5c-5.4-12.1,0.4-20.8,2.7-24
	c0.3-0.4,0.2-0.9-0.2-1.2c-0.2-0.1-0.4-0.2-0.6-0.1c-3.4,0.5-8.1,3.3-14.1,2.1c-0.3,0-0.4-0.3-0.4-0.6c0-0.2,0.1-0.3,0.3-0.4
	c2.6-1.2,6.8-3.4,5.4-4.8c-12.8-12.3-17.2-27.5-18.5-34.7c0-0.1,0-0.1-0.1-0.1s-0.1,0-0.1,0.1c-1.1,7.2-5.5,22.3-17.3,35.2
	c-2,2.2,5.5,3.6,7.2,5.7c-3.3,1.9-7.2,2.7-11,2.2c-2.5-0.2-4.4-0.4-6.2-1.3c-1.3-0.8-2.5-1.7-3.6-2.8c-0.6-0.5-2.7-3.2-3-3.2
	c-0.2,0-2.1,2.2-2.8,2.8c-6.2,4.7-14.2,6.3-21.7,4.4c-2.8-0.7-5.6-1.9-6.6-4.4c-1.6-3.8,1.5-6.4,4.6-7.3C60,26.9,50.6,27,46.9,29.7
	c-8.2-5.9-16.7-11.4-28.6-13.6c-0.2,0-0.3,0.1-0.4,0.3c0,0.1,0,0.2,0.1,0.3C37.6,32.1,51.6,49.3,54.8,59
	c-8.5,4.5-15.1,10.9-17.2,21.8C26.9,80.8,10,89.2,4.2,99.5c-2,3.6-7.1,14.7-1.9,23.6c1.3,2.3,3.3,4.6,6.4,5.2
	c3.9-5.9,8.7-11.8,15.9-15c6.6-2.9,18.4-4.2,26.1-0.8c1.8,0.8,3.8,3.4,6.6,2.7c0.8-0.2,2.4-2.2,3.2-2.8c3.3-2.2,8.8-3.5,14.3-3.4
	c9,0,18.8,1.3,23.9,5.8c1,0.9,7,8.1,0.4,15.7c-0.7,0.8-1.6,1.5-2.6,2c-9,4.3-28.2-0.4-41.6-1.2c-15.7-0.9-32.2,11.9-29.4,20.9
	c1.3-2.1,3.3-3.6,5.7-4.2c4.5-1.6,12.1-0.5,17.9-0.8c6-0.3,12.3-0.3,18-0.5c5.7-0.3,11.5,0.2,17.1,1.6c4.6,1.2,10.8,4.3,10.2,9.8
	c-0.3,3-2.7,5.2-4.9,6.8c-5.6,4.1-14.1,5.5-23.5,5.7c-3.1,0.1-7.5,0.2-8,1.2c3.1,1.3,4.8,4,7.7,5.4c-17.9,3.9-34.5,11.2-42.3,26.1
	c-2.6,5-5.2,10.6-5.2,17.5c0,2.4-0.1,5.5,1.5,6.6c2.4-5.2,6.5-8.7,11.5-11.3c-0.1,2,0.3,13.2,0.9,11.9c2.3-4.8,10.1-10,12.7-11
	c-0.1,4.6-0.4,8.8,1.5,12.1c4.1-5.4,14.1-10.8,16.6-11.8c-1.6,5.1-3.5,10.7-2.8,17.6c8.7-7.2,18-15,29.2-20.1c-3.8,3-6.8,6.8-9,11.1
	c15.9-5.6,34.8-10.1,48.5-18.2c-2.6,5.5-6.9,9.2-9.7,14.4c17.4-3.9,26.7-11.7,33.1-26.6C147.5,198.9,142.5,202.1,137.4,205.1z
	 M53.7,101.3c1.1-2.8,7.5-1.8,8.1,0.4C59.4,102.5,55.6,102.7,53.7,101.3z"/>
</svg>
