<?xml version="1.0" encoding="UTF-8"?>
<!-- Generator: Adobe Illustrator 27.3.1, SVG Export Plug-In . SVG Version: 6.00 Build 0)  -->
<svg xmlns:sodipodi="http://sodipodi.sourceforge.net/DTD/sodipodi-0.dtd" xmlns:dc="http://purl.org/dc/elements/1.1/" xmlns:inkscape="http://www.inkscape.org/namespaces/inkscape" xmlns:rdf="http://www.w3.org/1999/02/22-rdf-syntax-ns#" xmlns:cc="http://creativecommons.org/ns#" xmlns:svg="http://www.w3.org/2000/svg" xmlns="http://www.w3.org/2000/svg" xmlns:xlink="http://www.w3.org/1999/xlink" version="1.1" id="svg214" x="0px" y="0px" viewBox="0 0 370.8 101.3" style="enable-background:new 0 0 370.8 101.3;" xml:space="preserve">

<g id="g273" transform="matrix(1.5568458,0,0,1.5568458,24.060479,75.669)">
	<rect id="fullLogo-2" x="22.2" y="-33.4" width="8.9" height="34.5"></rect>
	<polygon id="fullLogo-3" points="99,1.1 99,-33.4 108,-33.4 108,-6.8 119.9,-6.8 119.9,1.1  "></polygon>
	<polygon id="fullLogo-4" points="145.5,-6.8 145.5,1.1 122.8,1.1 122.8,-33.4 145.5,-33.4 145.5,-25.6 131.7,-25.6 131.7,-19.9    144.9,-19.9 144.9,-12.6 131.7,-12.6 131.7,-6.8  "></polygon>
	<path id="fullLogo-5" d="M199.6-16.8l12.2-16.6h-12.6l-11.3,15.9v-15.9h-11V1.1h11v-15.9l19.5,25.2c-5.1,3.1-10.9,4.7-16.9,4.7   c-17.7,0-31.3-13.5-31.3-31.3c0-17.7,13.5-31.2,31.3-31.2s31.3,13.5,31.3,31.2c0.1,7-2.2,13.8-6.4,19.4L199.6-16.8z"></path>
	<path id="fullLogo-6" d="M55-12.1c4-1.7,6.5-5.6,6.4-9.9c0-7.6-5.4-11.4-15.1-11.4H35.2V1.1h8.9v-14.4l9.2,14.4h10.5L55-12.1z    M46.6-15.7h-2.5v-10.4h2.5c3.6,0,6,1.6,6,5.1C52.6-17.4,50.1-15.7,46.6-15.7L46.6-15.7z"></path>
	<path id="fullLogo-7" d="M4.4-25.9c-5.5,0-9.4,4.4-9.4,9.7c0,5.3,3.8,9.7,9.4,9.7c3.4,0,6.6-1.8,8.4-4.8l6.8,4.5   c-3.3,5.4-9.1,8.6-15.4,8.5c-10.4,0-18.1-7.8-18.1-17.9c0-10,7.7-17.8,18.1-17.8c6.3-0.2,12.2,3,15.5,8.4l-7,4.6   C10.9-23.9,8.2-25.9,4.4-25.9L4.4-25.9z"></path>
	<path id="fullLogo-8" d="M81.4-25.9c-5.5,0-9.4,4.4-9.4,9.7c0,5.3,3.8,9.7,9.4,9.7c3.4,0,6.6-1.8,8.4-4.8l6.9,4.5   c-3.3,5.4-9.1,8.6-15.4,8.5c-10.4,0-18.1-7.8-18.1-17.9c0-10,7.7-17.8,18.1-17.8c6.3-0.2,12.2,3,15.5,8.4l-7,4.6   C87.9-23.9,85.2-25.9,81.4-25.9z"></path>
</g>
</svg>
