<?xml version="1.0" encoding="UTF-8"?>
<!-- Generator: Adobe Illustrator 27.3.1, SVG Export Plug-In . SVG Version: 6.00 Build 0)  -->
<svg xmlns="http://www.w3.org/2000/svg" xmlns:xlink="http://www.w3.org/1999/xlink" version="1.1" id="Lager_1" x="0px" y="0px" viewBox="0 0 566.9 566.9" style="enable-background:new 0 0 566.9 566.9;" xml:space="preserve">
<path d="M48.2,142.9c5.4-1.1,14-2,22.7-2c12.4,0,20.5,2.1,26.5,7c5,3.7,8,9.4,8,17c0,9.3-6.2,17.5-16.3,21.2v0.3  c9.2,2.3,19.9,9.9,19.9,24.2c0,8.3-3.3,14.6-8.2,19.3c-6.7,6.2-17.6,9-33.3,9c-8.6,0-15.2-0.6-19.3-1.1V142.9z M60.6,182.4h11.3  c13.2,0,20.9-6.9,20.9-16.2c0-11.3-8.6-15.7-21.2-15.7c-5.7,0-9,0.4-11,0.9V182.4z M60.6,228.6c2.4,0.4,6,0.6,10.4,0.6  c12.9,0,24.8-4.7,24.8-18.7c0-13.2-11.3-18.6-24.9-18.6H60.6V228.6z"></path>
<path d="M152,207.7L142,238h-12.9l32.8-96.4h15l32.9,96.4h-13.3l-10.3-30.3H152z M183.6,198l-9.4-27.8c-2.1-6.3-3.6-12-5-17.6h-0.3  c-1.4,5.7-3,11.6-4.9,17.5l-9.4,27.9H183.6z"></path>
<path d="M308.1,233.7c-5.6,2-16.6,5.3-29.6,5.3c-14.6,0-26.6-3.7-36.1-12.7c-8.3-8-13.4-20.9-13.4-35.9  c0.1-28.8,19.9-49.8,52.2-49.8c11.2,0,19.9,2.4,24,4.4l-3,10.2c-5.2-2.3-11.6-4.1-21.3-4.1c-23.5,0-38.8,14.6-38.8,38.8  c0,24.5,14.7,38.9,37.2,38.9c8.2,0,13.7-1.1,16.6-2.6v-28.8h-19.6v-10h31.8V233.7z"></path>
<polygon points="387.8,192.8 350.3,192.8 350.3,227.6 392.1,227.6 392.1,238 337.9,238 337.9,141.6 390,141.6 390,152 350.3,152   350.3,182.5 387.8,182.5 "></polygon>
<path d="M419,142.9c6.3-1.3,15.3-2,23.9-2c13.3,0,21.9,2.4,27.9,7.9c4.9,4.3,7.6,10.9,7.6,18.3c0,12.7-8,21.2-18.2,24.6v0.4  c7.4,2.6,11.9,9.4,14.2,19.5c3.1,13.4,5.4,22.7,7.4,26.5h-12.9c-1.6-2.7-3.7-11-6.4-23c-2.9-13.3-8-18.3-19.3-18.7h-11.7V238H419  V142.9z M431.5,186.8h12.7c13.3,0,21.7-7.3,21.7-18.3c0-12.4-9-17.9-22.2-18c-6,0-10.3,0.6-12.3,1.1V186.8z"></path>
<rect x="506.7" y="141.6" width="12.4" height="96.4"></rect>
<path d="M165.6,362.3c-3.5,1.7-10.5,3.5-19.4,3.5c-20.7,0-36.3-13.1-36.3-37.2c0-23,15.6-38.6,38.4-38.6c9.2,0,14.9,2,17.4,3.3  l-2.3,7.7c-3.6-1.7-8.7-3.1-14.8-3.1c-17.2,0-28.7,11-28.7,30.3c0,18,10.4,29.5,28.2,29.5c5.8,0,11.7-1.2,15.5-3.1L165.6,362.3z"></path>
<path d="M191.5,341.6l-7.6,23.1h-9.8l25-73.5h11.4l25.1,73.5h-10.1l-7.8-23.1H191.5z M215.6,334.2l-7.2-21.1  c-1.6-4.8-2.7-9.2-3.8-13.4h-0.2c-1.1,4.4-2.3,8.8-3.7,13.3l-7.2,21.3H215.6z"></path>
<polygon points="248.6,291.3 288.1,291.3 288.1,299.2 258,299.2 258,323.6 285.8,323.6 285.8,331.5 258,331.5 258,364.7   248.6,364.7 "></polygon>
<path d="M341.9,330.3h-28.6v26.5h31.8v8h-41.3v-73.5h39.7v8h-30.2v23.2h28.6V330.3z M340,274.6l-13.8,12.8h-7.8l10.1-12.8H340z"></path>
<polygon points="397.7,330.3 369.1,330.3 369.1,356.8 401,356.8 401,364.7 359.6,364.7 359.6,291.3 399.3,291.3 399.3,299.2   369.1,299.2 369.1,322.4 397.7,322.4 "></polygon>
<polygon points="429.4,299.3 407.1,299.3 407.1,291.3 461.5,291.3 461.5,299.3 439,299.3 439,364.7 429.4,364.7 "></polygon>
<path d="M17.6,9.4c2.6,0.3,4.5,1.4,6,3.1c2.6,2.9,4.9,6,6.4,9.7c1.1,2.7,3.1,4.8,4.8,7c0.7,1,1.1,2,0.4,3.2c-1,1.7-2,2-3.7,1.1  c-4.8-2.6-9.5-5.3-14.6-7.2c-2.3-0.9-4.1-2.5-5.7-4.4c-1.7-2-2-4.1-1-6.4c1.2-2.6,2.8-5,5.7-5.9C16.6,9.6,17.2,9.5,17.6,9.4"></path>
<path d="M9.4,45c0.2-2.9,1.4-6.1,3.7-8.6c2-2.2,4.8-2.4,7.6-2.3c3,0.1,6,0.9,8.9,1.8c1.3,0.4,2,1.1,1.6,2.6  c-0.4,1.5-1.3,1.9-2.8,1.6c-2.8-0.6-5.7-0.7-8.3,0.8c-1,0.6-2,1.2-2.6,2.3c-0.8,1.5-0.4,2.3,1.3,2.3c3,0.1,4.8,1.6,5,4.4  c0.2,2.9-1.1,4.5-4.1,5.2C14.8,56,10,52.2,9.5,46.8C9.5,46.3,9.5,45.9,9.4,45"></path>
<path d="M41.6,24.5c-0.1,1,0.1,2.2,0.4,3.4c0.3,1.3-0.7,1.7-1.6,2.2c-0.8,0.4-1.5,0.3-1.9-0.5c-1.9-4.1-3.9-8.3-3.2-13.1  c0.8-4.8,6-8.6,10.9-8c2,0.3,3.9,0.6,5.7,1.5c3.4,1.7,4.9,5.9,3.4,9.3c-0.7,1.6-3,2.7-5,2.5c-2-0.2-3.7-1.8-4.1-3.9  c-0.1-0.7,0.2-1.8-1-1.9c-1.1-0.1-1.7,0.6-2.2,1.5C42.2,18.9,41.7,21.6,41.6,24.5"></path>
<path d="M23.9,65.7c0,3.8-3.7,7.7-7.2,7.8c-4.2,0.1-6.9-3-7-7.9c0-3.4,3.2-6.4,6.8-6.5C20,59.1,23.8,62.5,23.9,65.7"></path>
<path d="M67.3,8.7c3.7,0,7.4,3.2,7.4,6.6c0,3.6-3.9,7.7-7.3,7.7c-4.1,0-6.8-3.2-6.9-7.9C60.4,11.6,63.5,8.7,67.3,8.7"></path>
<path d="M18.5,557.2c-3.5,0-8-3.6-8.7-6.8c-0.6-2.8,0.8-5,2.6-6.8c2.8-2.6,5.8-5,9.4-6.5c2.9-1.2,5.2-3.3,7.7-5.1  c1.2-0.9,2.3-1,3.5-0.1c1.2,0.9,1.6,1.9,0.8,3.2c-2.9,5-5.5,10.2-7.7,15.6c-0.9,2.4-2.8,4-4.8,5.5C20.4,556.9,19.4,557.1,18.5,557.2  "></path>
<path d="M45.1,557.4c-3-0.2-6.1-1.4-8.7-3.8c-2.2-2-2.3-4.9-2.2-7.6c0.1-3,0.9-5.8,1.8-8.7c0.4-1.4,1.2-2.1,2.7-1.6  c1.4,0.4,1.8,1.3,1.5,2.7c-0.5,2.3-0.5,4.5,0.1,6.8c0.4,1.4,1.1,2.6,2.2,3.6c0.7,0.7,1.5,1.2,2.5,0.8c1-0.4,0.6-1.4,0.6-2.1  c0.1-2.4,1.6-4,3.9-4.4c2.5-0.4,4.5,0.7,5.3,2.9c2,5.2-1.8,10.7-7.8,11.3C46.5,557.4,46.1,557.4,45.1,557.4"></path>
<path d="M18.6,531.6c-6.1-0.1-10.7-5.5-9.9-11.5c0.2-1.7,0.6-3.4,1.3-5c1.6-3.5,5.5-5.1,9.1-3.8c1.7,0.6,3,2.8,2.8,5  c-0.2,2.1-1.7,3.8-3.8,4.3c-0.8,0.2-1.9-0.2-2,1.1c-0.1,1.1,0.7,1.8,1.7,2.2c3.1,1.4,6.3,1.8,9.6,1.1c1.6-0.4,2.3,0.2,2.9,1.5  c0.7,1.5-0.4,1.9-1.4,2.3C25.6,530.1,22.2,531.4,18.6,531.6"></path>
<path d="M73.6,550.4c-0.1,4.2-3.2,6.9-8,6.8c-3.4-0.1-6.4-3.4-6.3-7c0.1-3.6,3.5-7.3,6.7-7.2C69.7,543,73.6,546.8,73.6,550.4"></path>
<path d="M8.7,499.5c0-3.7,3.3-7.4,6.6-7.4c3.6,0,7.8,4,7.7,7.3c-0.1,4.1-3.3,6.8-8,6.9C11.6,506.4,8.8,503.3,8.7,499.5"></path>
<path d="M557.3,548.6c0,3.3-3.4,7.8-6.5,8.6c-2.9,0.8-5.2-0.6-7.1-2.6c-2.6-2.8-5-5.8-6.5-9.4c-1.2-2.8-3.2-5.1-5-7.5  c-0.7-1-1.2-2-0.5-3.2c1-1.7,2-2.1,3.6-1.1c4.8,2.6,9.5,5.3,14.6,7.2c2.6,0.9,4.5,2.8,6.1,4.9C556.8,546.4,557.2,547.5,557.3,548.6"></path>
<path d="M557.5,522.1c-0.2,2.8-1.4,6-3.8,8.6c-2,2.2-4.9,2.3-7.6,2.2c-3-0.1-5.8-0.9-8.7-1.8c-1.3-0.4-2-1.1-1.7-2.6  c0.4-1.5,1.2-1.9,2.7-1.6c3.1,0.6,6.1,0.7,9-1.1c0.9-0.6,1.8-1.2,2.1-2.2c0.4-1,0.5-1.9-1.1-2.1c-3.9-0.3-5.7-2.1-5.4-5.4  c0.3-3,3.3-4.9,6.8-4.4C554.2,512.4,557.4,516.5,557.5,522.1"></path>
<path d="M525.3,542.8c0-1.2,0.1-2.2-0.3-3.1c-0.6-1.5,0.2-2.3,1.5-2.8c1.5-0.6,1.9,0.6,2.3,1.5c1.2,2.8,2.4,5.7,2.8,8.8  c0.9,6.6-4.7,12.2-11.3,11.3c-1.7-0.2-3.4-0.6-5-1.3c-3.3-1.5-4.8-4.3-4.2-8c0.4-2.5,2.1-3.9,4.7-4c2.3-0.1,4.3,1.5,4.8,3.9  c0.2,0.7-0.2,1.8,0.9,2c1.1,0.2,1.8-0.6,2.3-1.5C525,547.3,525.3,544.9,525.3,542.8"></path>
<path d="M557.3,501.3c0,3.4-3.2,6.4-6.8,6.5c-3.6,0-7.4-3.3-7.4-6.5c0-3.8,3.7-7.7,7.2-7.8C554.5,493.4,557.2,496.5,557.3,501.3"></path>
<path d="M499.6,558.3c-3.7,0-7.4-3.3-7.4-6.6c0-3.6,4-7.8,7.3-7.7c4.1,0.1,6.8,3.3,6.9,8C506.5,555.4,503.4,558.3,499.6,558.3"></path>
<path d="M548.5,9.6c3.3,0,7.7,3.4,8.6,6.5c0.8,2.9-0.6,5.2-2.6,7.1c-2.8,2.7-5.8,5-9.4,6.5c-2.8,1.2-5.1,3.2-7.5,5  c-1,0.7-2,1.2-3.2,0.5c-1.7-1-2.1-2-1.1-3.6c2.6-4.8,5.3-9.5,7.2-14.6c0.9-2.6,2.8-4.5,4.9-6.1C546.3,10,547.4,9.6,548.5,9.6"></path>
<path d="M532.8,20.4c-0.3,3.1-1,6.3-1.9,9.4c-0.4,1.4-1.3,1.7-2.6,1.3c-1.3-0.3-1.8-1.1-1.5-2.5c0.5-2.3,0.6-4.7-0.1-7  c-0.5-1.8-1.4-3.3-3.1-4.3c-1.4-0.8-2.2-0.3-2.2,1.3c-0.1,4.1-3.5,6.2-7.2,4.6c-1.8-0.8-3.1-4.1-2.6-6.7c0.9-4.9,6.6-8.3,11.8-7  c1.2,0.3,2.4,0.8,3.5,1.2C531.9,13,532.5,15.4,532.8,20.4"></path>
<path d="M542.5,41.6c-1.2,0-2.3,0-3.5,0.4c-1.4,0.4-1.9-0.6-2.3-1.5c-0.4-0.8-0.3-1.5,0.5-1.9c4.1-1.9,8.3-3.9,13.1-3.2  c4.8,0.8,8.6,6.1,8,10.9c-0.3,2-0.6,3.9-1.5,5.7c-1.7,3.4-5.9,4.9-9.3,3.4c-1.6-0.7-2.7-3-2.5-5c0.2-2,1.8-3.7,3.9-4.1  c0.7-0.1,1.8,0.2,1.9-1c0.1-1-0.5-1.6-1.3-2.1C547.3,41.9,545,41.6,542.5,41.6"></path>
<path d="M501.1,23.8c-3.8,0-7.7-3.7-7.7-7.3c0-4.2,3.1-6.9,7.9-6.9c3.4,0,6.4,3.2,6.4,6.9C507.6,20,504.3,23.8,501.1,23.8"></path>
<path d="M558.2,67.3c0,3.6-3.3,7.3-6.5,7.3c-3.6,0-7.8-3.8-7.8-7.2c0-4.1,3.3-7,8.1-7C555.4,60.4,558.2,63.6,558.2,67.3"></path>
<path d="M558.4,445.6c0-2.9-0.1-5.9-0.1-8.8v-7.3v-9v-10.5v-11.8v-13v-14v-14.9v-15.6v-16.2v-16.6V291v-16.9v-16.8v-16.6v-16.2  v-15.6V194v-14v-13v-11.8v-10.5v-8.9c0-10.1,0.1-20.2-0.8-30.3c-0.3-3.4-0.8-6.7-1.5-10c-1-3.9-2.1-7.8-4.2-11.2  c-3.6-6.1-8.2-11-15.2-13.1c-3-0.9-3.3-1.7-1.7-4.6c4.9-9.3,4.2-18.1-2.2-26.4c-3.7-4.8-7.9-8.5-13.9-10.3c-6.2-1.8-12-1.8-17.7,1.4  c-2.5,1.4-3.6,1.1-5.1-1.4c-0.3-0.5-0.5-1-0.8-1.5c-3.9-8.8-10.9-13.9-19.8-16.6c-3.2-1-6.5-1.7-9.8-2.1c-1.7-0.2-3.3-0.4-5-0.6  c-1.5-0.1-3.1-0.4-4.6-0.4c-6.9,0-13.9,0-20.8,0c-6.8,0-13.6,0.1-20.4,0.1h-5.4h-5.8h-6.1h-6.4h-6.7h-7h-7.2h-7.4h-7.6h-7.8h-8h-8.1  h-8.2h-8.3h-8.4H298h-8.5H281h-8.5H264h-8.4h-8.4h-8.3h-8.2h-8h-7.9h-7.7h-7.5h-7.3h-7.1h-6.9h-6.6h-6.3h-6h-5.7h-5.3h-4.9h-4.5  h-4.1h-3.7c-7.4,0-14.8-0.1-22.2,0.4c-4.5,0.3-9.1,0.7-13.6,1.8c-3.9,1-7.8,2.1-11.2,4.1c-6.1,3.6-11,8.2-13.1,15.2  c-0.9,3-1.7,3.3-4.6,1.8C57.2,26.9,48.4,27.7,40,34c-4.8,3.6-8.5,7.9-10.3,13.9c-1.9,6.3-1.7,12.1,1.5,17.9c1.3,2.4,1,3.4-1.3,4.9  c-0.5,0.3-1.1,0.6-1.6,0.9c-8.8,3.9-13.9,10.9-16.6,19.8c-1.9,6.4-2.8,13-3.1,19.6c-0.2,4.6-0.2,9.2-0.2,13.9c0,1.4,0,2.8,0,4.2  c0,1.7,0,3.3,0,5c0,1.9,0,3.8,0,5.8c0,2.2,0,4.3,0,6.5c0,2.4,0,4.8,0,7.1c0,2.6,0,5.2,0,7.8c0,2.8,0,5.5,0,8.3c0,2.9,0,5.9,0,8.8  c0,3.1,0,6.2,0,9.3c0,3.2,0,6.5,0,9.7c0,3.4,0,6.7,0,10.1c0,3.5,0,6.9,0,10.4c0,3.6,0,7.1,0,10.7c0,3.6,0,7.3,0,10.9  c0,3.7,0,7.4,0,11.1l0,11.2c0,3.8,0,7.5,0,11.3c0,3.8,0,7.6,0,11.4c0,3.8,0,7.6,0,11.3c0,3.8,0,7.5,0,11.3l0,11.2c0,3.7,0,7.3,0,11  c0,3.6,0,7.2,0,10.8c0,3.5,0,7,0,10.6c0,3.4,0,6.8,0,10.3c0,3.3,0,6.6,0,9.9c0,3.2,0,6.3,0,9.5c0,3,0,6,0,9.1c0,2.9,0,5.7,0,8.6  c0,2.7,0,5.3,0,8c0,2.5,0,5,0,7.4c0,2.3,0,4.5,0,6.8c0,10.1-0.2,20.3,0,30.4c0.2,7,0.4,14,2.1,20.9c1,4,2.1,7.9,4.3,11.4  c3.6,6,8.2,10.8,15.1,12.9c3,0.9,3.2,1.7,1.8,4.4c-4.9,9.3-4.3,18.2,2.2,26.6c3.6,4.7,7.8,8.4,13.8,10.2c6.4,1.9,12.3,1.8,18-1.5  c2.3-1.3,3.3-1,4.8,1.2c0.3,0.5,0.6,1.1,0.9,1.6c3.9,8.8,10.9,14,19.9,16.7c12.9,3.8,26.6,3.2,39.9,3.1c6.1,0,12.2,0,18.2,0h16h18.6  H205h22.3h23.5h24.1h24.3h24h23.2h21.9h20.1h17.9h15.1c6.6,0,13.3-0.1,19.9,0.1c6.6,0.2,13.3,0.2,19.9-0.4  c8.9-0.8,18.2-2.7,25.5-8.2c4.6-3.5,7.8-8.3,9.6-13.7c0.6-1.8,1.4-2.1,3.2-1.3c1.5,0.7,2.9,1.6,4.5,2.2c8.3,2.8,15.9,1.7,22.9-3.8  c4.8-3.7,8.6-8,10.4-14.1c1.8-6.2,1.7-12-1.5-17.7c-1.4-2.5-1.1-3.5,1.3-5c0.5-0.3,1-0.5,1.5-0.8c8.8-3.9,14-10.9,16.7-19.9  c2.2-7.3,3-14.8,3.2-22.4C558.5,450.6,558.5,448.1,558.4,445.6 M528.3,484.2l-0.7,0.3c-1.8,0.7-3.7,1.4-5.6,2.2c-4.7,2-6.7,6-5.7,11  c0.5,2.5,1.7,4.7,2.7,6.5l0.2,0.4c1.3,2.4,2,4.4,2.3,6.5c0.4,2.8-0.2,5.1-1.7,6.9c-1.7,2.1-4.6,3.4-8,3.6c-1.7,0.1-3.7-0.5-6.3-1.9  l-0.5-0.3c-1.8-1-3.6-2-5.7-2.6c-6.2-1.9-11.6,0.7-13.8,6.8c-0.4,1.1-0.8,2.2-1.1,3.3c-0.3,0.9-0.6,1.8-0.9,2.7  c-0.3,0.8-0.6,1.6-0.9,2.1c-3.2,5-8.1,8.5-15.2,10.6c-5.2,1.6-11,1.5-16.7,1.5l-1.6,0c-8.1,0-16.1,0-24.2-0.1l-286.5-0.2  c-4.6,0-9.1,0-13.7,0l-6.9,0l-2.2,0c-5.6,0-10.9,0-16-1.4c-1.6-0.5-3.2-1.1-4.6-1.8c-6.6-3.3-10.4-7.2-12.3-12.6  c-0.6-1.8-1.4-3.8-2.3-5.9c-1.9-4.6-5.9-6.6-10.8-5.6c-2.6,0.5-4.8,1.7-6.8,2.8l-0.4,0.2c-2.3,1.2-4.4,2-6.5,2.3  c-2.8,0.4-5.1-0.2-6.9-1.7c-2.1-1.7-3.4-4.7-3.5-8c-0.1-1.7,0.5-3.8,2-6.4l0.3-0.5c1.1-2,2.2-4.1,2.8-6.6c1.4-5.5-1.1-10.4-6.4-12.5  c-1.3-0.5-2.6-0.9-3.8-1.3c-0.7-0.2-1.3-0.4-2-0.6l-0.6-0.2c-1-0.3-1.8-0.6-2.5-1c-5.1-3.3-8.5-8.4-10.6-15.5  c-1.2-4-1.2-8.3-1.3-12.7l0-1.3c-0.1-5.3-0.1-10.6,0-15.8c0-2.8,0-5.6,0-8.4l0-282l0-3.7c0-2.9,0-5.7,0-8.6c0-5.6,0-11.3,0-16.9  l0-3.8c0-6.3,0.2-12,2.4-17.2c0.2-0.6,0.5-1.2,0.8-1.7c3.3-6.6,7.2-10.4,12.6-12.3c1.9-0.7,3.9-1.4,5.9-2.3  c4.6-1.9,6.6-5.9,5.7-10.8c-0.5-2.6-1.7-4.8-2.8-6.8l-0.2-0.4c-1.2-2.3-2-4.4-2.3-6.5c-0.4-2.8,0.2-5.1,1.7-6.9  c1.7-2.1,4.6-3.4,8-3.5c1.7-0.1,3.8,0.5,6.4,2l0.6,0.3c2,1.1,4.1,2.2,6.6,2.8c5.5,1.4,10.4-1.1,12.5-6.3c0.5-1.3,0.9-2.6,1.3-3.8  c0.2-0.6,0.4-1.3,0.6-1.9l0.2-0.7c0.3-1,0.6-1.8,1-2.4c3.3-5.1,8.4-8.5,15.4-10.6c4.6-1.3,9.4-1.3,14.4-1.4l1,0  c7,0,14.4-0.1,23.3-0.1h278.7c3.9,0,7.8,0,11.7-0.1c9.5-0.1,19.2-0.1,28.8,0.2c5.9,0.2,10.4,1.2,14.1,3.1  c6.6,3.3,10.5,7.3,12.4,12.7c0.7,1.9,1.4,3.9,2.3,5.9c1.9,4.4,5.7,6.4,10.5,5.5c2.7-0.5,5-1.7,7-2.8l0.3-0.2c2.3-1.2,4.4-2,6.5-2.3  c2.8-0.4,5.1,0.2,6.9,1.7c2.1,1.7,3.4,4.6,3.5,8c0.1,1.7-0.5,3.7-2,6.4l-0.3,0.6c-1.1,2.1-2.3,4.2-2.9,6.7  c-1.2,5.2,1.2,10.2,6.1,12.2c1.1,0.5,2.2,0.8,3.2,1.2c0.5,0.2,1,0.3,1.5,0.5c0.5,0.2,0.9,0.3,1.4,0.5c1.1,0.3,2.1,0.7,2.9,1.2  c5.6,3.8,9.2,9.3,11,16.9c1.1,4.9,1.1,9.9,1.1,15.2c0,0.9,0,1.8,0,2.7l0,33.6l0,268.8l0,5.3c0,3.2,0,6.4,0,9.6c0,1.8,0,3.6,0,5.4  c0,4.6,0.1,9.3,0,13.9c-0.1,5.6-0.6,11.4-3.2,16.5C536.8,478.8,533.2,482.3,528.3,484.2"></path>
<path d="M286.2,481.9l45.2-16.8l0,0c0.3,0.3,0.6,0.5,1,0.7c1.6,0.7,3.2,1.4,4.8,2.2c0.8,0.4,1.7,0.8,2.5,1.1c0.5,0.2,1,0.5,1.5,0.6  c2,0.3,2.6-1.9,3.3-3.3c0.8-1.8,1.6-3.6,2.5-5.3c0.2-0.4,0.4-0.8,0.5-1.2c0.1,0.1,0.2,0.1,0.4,0.2c1.6,0.7,3.2,1.5,4.8,2.2  c0.8,0.4,1.7,0.8,2.5,1.1c0.5,0.2,1,0.5,1.5,0.6c2,0.3,2.6-1.9,3.2-3.3c0.8-1.8,1.6-3.6,2.5-5.4c0.2-0.4,0.4-0.8,0.5-1.2  c0.1,0.1,0.2,0.1,0.4,0.2c1.6,0.7,3.2,1.5,4.8,2.2c0.8,0.4,1.7,0.8,2.5,1.1c0.5,0.2,1,0.5,1.5,0.6c2,0.3,2.6-1.9,3.3-3.3  c0.8-1.8,1.6-3.6,2.4-5.4c0.2-0.4,0.4-0.8,0.5-1.2c0.1,0.1,0.2,0.1,0.4,0.2c1.6,0.7,3.2,1.4,4.8,2.2c0.8,0.4,1.7,0.8,2.5,1.1  c0.5,0.2,1,0.5,1.5,0.6c2,0.3,2.6-1.9,3.3-3.3c0.8-1.8,1.6-3.6,2.5-5.4c0.2-0.4,0.4-0.8,0.5-1.2c0.1,0.1,0.2,0.1,0.4,0.2  c1.6,0.7,3.2,1.4,4.8,2.2c0.8,0.4,1.7,0.8,2.5,1.1c0.5,0.2,1,0.5,1.5,0.6c2,0.3,2.6-1.9,3.2-3.3c0.8-1.8,1.6-3.6,2.4-5.4  c0.2-0.4,0.4-0.8,0.5-1.2c0.1,0.1,0.2,0.1,0.4,0.2c1.6,0.7,3.2,1.5,4.8,2.2c0.8,0.4,1.7,0.8,2.5,1.1c0.5,0.2,1,0.5,1.5,0.6  c2,0.3,2.6-1.9,3.3-3.3c0.8-1.8,1.6-3.6,2.4-5.4c0.2-0.4,0.4-0.8,0.5-1.2c0.1,0.1,0.2,0.1,0.4,0.2c1.6,0.7,3.2,1.4,4.8,2.2  c0.8,0.4,1.7,0.8,2.5,1.1c0.5,0.2,1,0.5,1.5,0.6c2,0.3,2.6-1.9,3.3-3.3c0.8-1.8,1.6-3.6,2.4-5.4c0.2-0.4,0.4-0.8,0.5-1.2  c0.1,0.1,0.2,0.1,0.4,0.2c1.6,0.7,3.2,1.5,4.8,2.2c0.8,0.4,1.7,0.8,2.5,1.1c0.5,0.2,1,0.5,1.5,0.6c2,0.3,2.6-1.9,3.2-3.3  c0.8-1.8,1.6-3.6,2.4-5.4c0.2-0.4,0.4-0.8,0.5-1.2c0.1,0.1,0.2,0.1,0.4,0.2c1.6,0.7,3.2,1.4,4.8,2.2c0.8,0.4,1.7,0.8,2.5,1.1  c0.5,0.2,1,0.5,1.5,0.6c2,0.3,2.6-1.9,3.3-3.3c0.8-1.8,1.6-3.6,2.4-5.4c0.2-0.4,0.4-0.8,0.5-1.2c0.1,0.1,0.2,0.1,0.4,0.2  c1.6,0.7,3.2,1.5,4.8,2.2c0.8,0.4,1.7,0.8,2.5,1.1c0.5,0.2,1,0.5,1.5,0.6c2,0.3,2.6-1.9,3.3-3.3c0.8-1.8,1.6-3.6,2.4-5.4  c0.2-0.4,0.4-0.8,0.6-1.3c0.1-0.2,0.1-0.3,0.1-0.5l-0.5-1.3l-0.2-0.5c-0.2-0.2-0.4-0.4-0.7-0.5c-1.6-0.8-3.3-1.5-5-2.3  c-0.9-0.4-1.8-0.8-2.7-1.2c-0.8-0.4-1.5-0.7-2.4-0.4c-1.4,0.5-1.9,2.6-2.5,3.9c-0.8,1.7-1.5,3.4-2.3,5.1c-0.1,0.2-0.2,0.5-0.3,0.7  c0,0-0.1-0.1-0.2-0.1c-1.6-0.8-3.3-1.5-5-2.3c-0.9-0.4-1.8-0.8-2.7-1.2c-0.8-0.4-1.5-0.7-2.4-0.4c-1.4,0.5-1.9,2.6-2.5,3.9l-2.3,5.1  c-0.1,0.2-0.2,0.5-0.3,0.7c0,0-0.1-0.1-0.2-0.1c-1.6-0.8-3.3-1.5-5-2.3c-0.9-0.4-1.8-0.8-2.7-1.2c-0.8-0.4-1.5-0.7-2.4-0.4  c-1.4,0.5-1.9,2.7-2.5,3.9l-2.3,5.1c-0.1,0.2-0.2,0.5-0.3,0.7c-0.1,0-0.1-0.1-0.2-0.1c-1.6-0.8-3.3-1.5-5-2.3  c-0.9-0.4-1.8-0.8-2.7-1.2c-0.8-0.4-1.5-0.7-2.4-0.4c-1.4,0.5-1.9,2.7-2.5,3.9l-2.3,5.1c-0.1,0.2-0.2,0.5-0.3,0.7  c0,0-0.1-0.1-0.2-0.1c-1.6-0.8-3.3-1.5-5-2.3c-0.9-0.4-1.8-0.8-2.7-1.2c-0.8-0.4-1.5-0.7-2.4-0.4c-1.4,0.5-1.9,2.6-2.5,3.9l-2.3,5.1  c-0.1,0.2-0.2,0.5-0.3,0.7c-0.1,0-0.1-0.1-0.2-0.1c-1.6-0.8-3.3-1.5-5-2.3c-0.9-0.4-1.8-0.8-2.7-1.2c-0.8-0.4-1.5-0.7-2.4-0.4  c-1.4,0.5-1.9,2.7-2.5,3.9l-2.3,5.1c-0.1,0.2-0.2,0.5-0.3,0.7c-0.1,0-0.1-0.1-0.2-0.1c-1.6-0.8-3.3-1.5-5-2.3  c-0.9-0.4-1.8-0.8-2.7-1.2c-0.8-0.4-1.5-0.7-2.4-0.4c-1.4,0.5-1.9,2.7-2.5,3.9l-2.3,5.1c-0.1,0.2-0.2,0.5-0.3,0.7  c-0.1,0-0.1-0.1-0.2-0.1c-1.6-0.8-3.3-1.5-5-2.3c-0.9-0.4-1.8-0.8-2.7-1.2c-0.8-0.4-1.5-0.7-2.4-0.4c-1.4,0.5-1.9,2.7-2.5,3.9  l-2.3,5.1c-0.1,0.2-0.2,0.5-0.3,0.7c-0.1,0-0.1-0.1-0.2-0.1c-1.6-0.8-3.3-1.5-5-2.3c-0.9-0.4-1.8-0.8-2.7-1.2  c-0.8-0.4-1.5-0.7-2.4-0.4c-1.4,0.5-1.9,2.6-2.5,3.9l-2.3,5.1c-0.1,0.2-0.2,0.5-0.3,0.7c-0.1,0-0.1-0.1-0.2-0.1  c-1.6-0.8-3.3-1.5-5-2.3c-0.9-0.4-1.8-0.8-2.7-1.2c-0.8-0.4-1.5-0.7-2.4-0.4c-1.4,0.5-1.9,2.7-2.5,3.9l-2.3,5.1  c-0.2,0.4-0.4,0.8-0.4,1.2l-47.3,17.6l-47.3-17.6c-0.1-0.4-0.3-0.8-0.4-1.2l-2.3-5.1c-0.6-1.2-1.1-3.4-2.5-3.9  c-0.9-0.3-1.6,0-2.4,0.4c-0.9,0.4-1.8,0.8-2.7,1.2c-1.7,0.8-3.4,1.5-5,2.3c-0.1,0-0.1,0.1-0.2,0.1c-0.1-0.2-0.2-0.5-0.3-0.7  l-2.3-5.1c-0.6-1.2-1.1-3.4-2.5-3.9c-0.9-0.3-1.6,0-2.4,0.4c-0.9,0.4-1.8,0.8-2.7,1.2c-1.7,0.8-3.4,1.5-5,2.3  c-0.1,0-0.1,0.1-0.2,0.1c-0.1-0.2-0.2-0.5-0.3-0.7l-2.3-5.1c-0.6-1.2-1.1-3.4-2.5-3.9c-0.9-0.3-1.6,0-2.4,0.4  c-0.9,0.4-1.8,0.8-2.7,1.2c-1.6,0.8-3.4,1.5-5,2.3c-0.1,0-0.1,0.1-0.2,0.1c-0.1-0.2-0.2-0.5-0.3-0.7l-2.3-5.1  c-0.6-1.2-1.1-3.4-2.5-3.9c-0.9-0.3-1.6,0-2.4,0.4c-0.9,0.4-1.8,0.8-2.7,1.2c-1.7,0.8-3.4,1.5-5,2.3c-0.1,0-0.1,0.1-0.2,0.1  c-0.1-0.2-0.2-0.5-0.3-0.7l-2.3-5.1c-0.6-1.2-1.1-3.4-2.5-3.9c-0.9-0.3-1.6,0-2.4,0.4c-0.9,0.4-1.8,0.8-2.7,1.2  c-1.7,0.8-3.3,1.5-5,2.3c-0.1,0-0.1,0.1-0.2,0.1c-0.1-0.2-0.2-0.5-0.3-0.7l-2.3-5.1c-0.6-1.2-1.1-3.4-2.5-3.9  c-0.9-0.3-1.6,0-2.4,0.4c-0.9,0.4-1.8,0.8-2.7,1.2c-1.6,0.8-3.4,1.5-5,2.3c-0.1,0-0.1,0.1-0.2,0.1c-0.1-0.2-0.2-0.5-0.3-0.7  l-2.3-5.1c-0.6-1.2-1.1-3.4-2.5-3.9c-0.9-0.3-1.6,0-2.4,0.4c-0.9,0.4-1.8,0.8-2.7,1.2c-1.7,0.8-3.4,1.5-5,2.3  c-0.1,0-0.1,0.1-0.2,0.1c-0.1-0.2-0.2-0.5-0.3-0.7l-2.3-5.1c-0.6-1.2-1.1-3.4-2.5-3.9c-0.9-0.3-1.6,0-2.4,0.4  c-0.9,0.4-1.8,0.8-2.7,1.2c-1.7,0.8-3.3,1.5-5,2.3c-0.1,0-0.1,0.1-0.2,0.1c-0.1-0.2-0.2-0.5-0.3-0.7l-2.3-5.1  c-0.6-1.2-1.1-3.3-2.5-3.9c-0.9-0.3-1.6,0-2.4,0.4c-0.9,0.4-1.8,0.8-2.7,1.2c-1.7,0.8-3.4,1.5-5,2.3c0,0-0.1,0.1-0.2,0.1  c-0.1-0.2-0.2-0.5-0.3-0.7c-0.8-1.7-1.6-3.4-2.3-5.1c-0.6-1.2-1.1-3.4-2.5-3.9c-0.9-0.3-1.6,0-2.4,0.4c-0.9,0.4-1.8,0.8-2.7,1.2  c-1.7,0.8-3.3,1.5-5,2.3c-0.3,0.1-0.5,0.3-0.7,0.5l-0.2,0.5l-0.5,1.3c0,0.2,0.1,0.3,0.1,0.5c0.1,0.4,0.4,0.8,0.6,1.3  c0.8,1.8,1.6,3.6,2.4,5.4c0.7,1.4,1.2,3.6,3.3,3.3c0.5-0.1,1-0.4,1.5-0.6c0.8-0.4,1.7-0.8,2.5-1.1c1.6-0.7,3.2-1.4,4.8-2.2  c0.1-0.1,0.3-0.1,0.4-0.2c0.2,0.4,0.4,0.8,0.5,1.2c0.8,1.8,1.6,3.6,2.4,5.4c0.6,1.4,1.2,3.6,3.3,3.3c0.5-0.1,1-0.4,1.5-0.6  c0.8-0.4,1.7-0.8,2.5-1.1c1.6-0.7,3.2-1.4,4.8-2.2c0.1-0.1,0.2-0.1,0.4-0.2c0.1,0.4,0.4,0.8,0.5,1.2c0.8,1.8,1.6,3.6,2.4,5.4  c0.7,1.4,1.2,3.6,3.2,3.3c0.5-0.1,1-0.4,1.5-0.6c0.8-0.4,1.7-0.8,2.5-1.1c1.6-0.7,3.2-1.4,4.8-2.2c0.1-0.1,0.3-0.1,0.4-0.2  c0.1,0.4,0.4,0.8,0.5,1.2c0.8,1.8,1.6,3.6,2.4,5.4c0.6,1.4,1.2,3.6,3.3,3.3c0.5-0.1,1-0.4,1.5-0.6c0.8-0.4,1.7-0.8,2.5-1.1  c1.6-0.7,3.2-1.4,4.8-2.2c0.1-0.1,0.3-0.1,0.4-0.2c0.1,0.4,0.4,0.8,0.5,1.2c0.8,1.8,1.6,3.6,2.4,5.4c0.6,1.4,1.2,3.6,3.3,3.3  c0.5-0.1,1-0.4,1.5-0.6c0.8-0.4,1.7-0.8,2.5-1.1c1.6-0.7,3.2-1.4,4.8-2.2c0.1-0.1,0.2-0.1,0.4-0.2c0.1,0.4,0.4,0.8,0.5,1.2  c0.8,1.8,1.6,3.6,2.5,5.4c0.6,1.4,1.2,3.6,3.2,3.3c0.5-0.1,1-0.4,1.5-0.6c0.8-0.4,1.7-0.8,2.5-1.1c1.6-0.7,3.2-1.4,4.8-2.2  c0.1-0.1,0.3-0.1,0.4-0.2c0.1,0.4,0.4,0.8,0.5,1.2c0.8,1.8,1.6,3.6,2.4,5.4c0.6,1.4,1.2,3.6,3.3,3.3c0.5-0.1,1-0.4,1.5-0.6  c0.8-0.4,1.7-0.8,2.5-1.1c1.6-0.7,3.2-1.4,4.8-2.2c0.1-0.1,0.3-0.1,0.4-0.2c0.1,0.4,0.4,0.8,0.5,1.2c0.8,1.8,1.6,3.6,2.4,5.4  c0.7,1.4,1.2,3.6,3.3,3.3c0.5-0.1,1-0.4,1.5-0.6c0.8-0.4,1.7-0.8,2.5-1.1c1.6-0.7,3.2-1.4,4.8-2.2c0.1-0.1,0.2-0.1,0.4-0.2  c0.1,0.4,0.3,0.8,0.5,1.2c0.8,1.8,1.6,3.6,2.4,5.4c0.6,1.4,1.2,3.6,3.2,3.3c0.5-0.1,1-0.4,1.5-0.6c0.8-0.4,1.7-0.8,2.5-1.1  c1.6-0.7,3.2-1.4,4.8-2.2c0.1-0.1,0.3-0.1,0.4-0.2c0.1,0.4,0.4,0.8,0.5,1.2c0.8,1.8,1.6,3.6,2.4,5.3c0.6,1.4,1.2,3.6,3.3,3.3  c0.5-0.1,1-0.4,1.5-0.6c0.8-0.4,1.7-0.8,2.5-1.1c1.6-0.7,3.2-1.4,4.8-2.2c0.4-0.2,0.7-0.4,1-0.7l0,0l45.2,16.8l-61.2,22.8l0.7,1.8  l63.3-23.6l63.3,23.6l0.7-1.8L286.2,481.9z"></path>
</svg>
