<?xml version="1.0" encoding="UTF-8"?>
<!-- Generator: Adobe Illustrator 27.3.1, SVG Export Plug-In . SVG Version: 6.00 Build 0)  -->
<svg xmlns="http://www.w3.org/2000/svg" xmlns:xlink="http://www.w3.org/1999/xlink" version="1.1" id="Lager_1" x="0px" y="0px" viewBox="0 0 504.4 167.1" style="enable-background:new 0 0 504.4 167.1;" xml:space="preserve">
<g id="Lager_1_00000110461094883056646710000015891437767131222958_">
	<path d="M493.1,121.3c-1.1-5-1.1-6.9-0.9-7.7c4.5-4,5-9,1.4-14.1c-2-2.9-6.6-3.7-9.3-3.9c-6.6-19.9-10.6-29.7-14.2-38   c-1.9-4.5-8.7-19-13.6-18.2c-2.7,0.4-3.9,3-12.9,27.8l-2.2,6.1c-4.9,13.4-10.2,27.5-14.5,38.9l-4.3,11.4c-4.2,11.3-6,16,5.5,20.8   c2.1,0.9,4.6,0.8,6.6-0.3c5.9-3.1,9-13.8,10-18c6.9-2,19.7-5.1,26.1-6.6l3.5-0.9c0.2-0.1,0.4-0.1,0.5-0.1c0.5,2.3,1,4.7,1.2,7.1   l0.1,1c1,6.8,2,10.4,5,11.6c2.7,1.1,5.5-0.7,7.9-2.6c6.4-5.1,5.4-9.2,4.5-12.8C493.3,122.3,493.2,121.8,493.1,121.3z M451.5,102.3   c2.1-6.3,5.6-16.3,7.8-22.6c2.8,6.4,6,14.7,7.6,18.9C462.4,99.6,455.8,101.2,451.5,102.3z"></path>
	<path d="M131.1,9.8c-0.3-1.8-1.6-4.3-6.7-5.6c-6.9-1.7-12.7-1.3-28.1-0.3l-3.8,0.3c-18.6,1.2-62,5.6-77.7,11.3   c-6,2.2-12.6,9.9-11.6,24.3c0.1,3.2,1.1,5.5,2.9,7c2.6,2.1,6.1,1.5,8,1.2c0.3,0,24.4-4.1,37.8-9.2C51.5,45,51,57.7,51,69   c0,16.2,3.5,69.9,5.6,81.3c0.9,5.1,2.5,8,5,9.3c2.9,1.5,5.9,0,8.1-1.1c0.3-0.2,0.7-0.3,1-0.5c5.5-2.6,10.9-6.6,10.3-25.9l-0.3-9.7   c-0.5-19.8-1.3-49.6-4.8-90.4c4-0.7,13-2.4,23.8-5c14.6-3.5,19.7-5.6,25.7-9.1C129.5,15.5,131.5,12.6,131.1,9.8z"></path>
	<path d="M139.2,58.8l-0.1-0.1c-1.5-1.9-3.3-3.4-5.4-4.5c2.4-2.2,3.8-5.1,2.9-7.9c-1-3.5-5.3-7-20.2-3.8c-25,5.4-34.9,34.5-34,53.4   c1,20.6,15.5,42.4,35.5,42.1s35.4-22.2,35.7-41.6C153.9,76.6,139.3,58.9,139.2,58.8z M106.9,111.7c-3.5-3.4-7.4-10.2-6.5-22.6   c1.2-15.6,11.9-24.5,22.4-29.5c-3.2,6.2-0.9,10,1.7,14.4c3.7,5.5,5.9,11.8,6.4,18.4c0.8,8.3-0.5,14.6-3.9,18.6   c-2.6,3-6.3,4.8-10.3,5.1C114.3,116.3,110.2,115.1,106.9,111.7L106.9,111.7z"></path>
	<path d="M174.2,43.8c6.1-0.5,8,2,9.6,4.1c1,1.3,2.4,3.2,4.9,2.6c2.1-0.5,10.7-3.9,11.9-8.6c0.4-1.8-0.2-3.7-1.7-4.8l0.2,0.2   c-10.6-10.9-20.6-15.2-40.8-4.9l-0.3,0.1l-0.2,0.2c-20.7,17.6-9.9,39.1-5.3,48.3c5.1,10.1,13.7,21.5,20,29.7l3.2,4.1   c2.5,3.1,3.1,7.3,1.6,11c-0.9,2.5-3.1,4.3-5.8,4.7c-2.7,0.3-4.8-2.4-7.4-6.2c-2.1-3.1-4.1-6.1-7.3-6.1c-2.1,0.2-4,1.3-5.3,3   c-1.5,1.7-3.9,5.6-3,12.2c1.3,10,12.6,15.3,22.6,16c8.9,0.6,16.9-6.1,17.6-6.7s5.4-4.5,8.7-13.5c4.7-14.3-2.4-31.9-18.8-47.1   c-15.6-19.4-13.9-29.3-12.4-32.7C167.5,46.1,170.7,43.9,174.2,43.8z"></path>
	<path d="M346.3,33.8c-1.7-1.5-3.9-1.9-6.6-1.4l0,0c-2.7,0.6-9.1,1.9-10.5,13.3c-0.2,1.9-0.7,5-1.2,8.9c-2.5,16.9-7,48.2-7,70.4v0.1   c0,3,1.6,5.7,4.1,7.2c2.6,1.4,5.7,1.5,8.3,0.1l0.5-0.2c4.4-2.2,6-4.1,7.7-19.1c0.7-6.2,1.8-14.1,3-22.5c1.8-12.6,3.6-25.6,4.1-33.5   l0.3-3.7C349.5,44.3,350,37.1,346.3,33.8z"></path>
	<path d="M327.8,121.8c-1.3-3.1-4-4.9-7-4.5c-3.2,0.6-6.3,1.4-9.4,2.4c-4.8,1.4-11,3.3-15.1,3.6c1-6.3,3.3-22.5,5.2-41.2l1.9-18.7   c1.5-13.8,2.4-22.9,2.2-29c0-1.3-0.8-2.5-1.9-3c-4-1.9-12.9,3.8-14.4,4.9l-0.7,0.5c-3.8,2.8-3.9,3.8-4.7,11.5   c-0.2,1.7-0.5,3.9-1,6.9c-1.9,11.9-5.5,34.1-7.8,79.2c-0.3,0.8-0.8,1.4-1.4,2c-1.2,1.4-3.2,3.7-1.9,6.6c1.8,4,4.3,3.9,13.7,3.6   l2.7-0.1c5.8-0.1,25.4-1.3,35.1-9.4C328.9,132.6,329.5,126,327.8,121.8z"></path>
	<path d="M434,117.6c-1.7-1.8-4.5-1.8-7.2-1.5c-6.7,1-13.4,2.3-19.9,4c1-6.6,2.9-21.2,4.2-39.3c0.5-6.3,1.2-12.7,1.9-18.3   c2-16.7,2.8-24.8-1.5-27.7c-1.9-1.2-4.2-1.1-7,0.4l-1.5,0.8c-3.8,2-8.5,4.5-9.1,9.6c-0.3,2.4-2.5,26.2-4.6,49.2   c-1.7,18.6-3.3,36.2-3.6,38.5c-0.3,2.6-0.5,5.2,1.1,7.1s4.1,2.4,6.7,2.7h0.3c5.9,0.6,21.6,2.3,32.7-3.7c1.7-0.5,6.6-3,8.9-14.2   v-0.1C435.7,122.3,435.8,119.5,434,117.6z"></path>
	<path d="M399.7,112.7c-1.3-3-4.4-4.4-8.2-3.9c-4.8,0.7-5.8,0.9-9.9,1.7l-13.2,2.6c0.8-5.9,2.7-18.7,5.4-33.8   c1.5-8,3.4-15.9,5.8-23.7c3.2-11,5-17.1,1.8-20c-2.4-2.2-6-0.7-7.2-0.2l-0.8,0.3c-4.6,1.7-8.8,4.5-13.9,21.3   c-7.3,24.3-12.1,49.3-14.5,74.6c-0.2,1.8-0.4,4.5,1.3,6.4c1.7,1.8,4.7,1.7,7.4,1.5c0.5,0,1-0.1,1.5-0.1c6.6-0.4,28.7-2.3,37.6-9.7   C399,124.6,401.8,117.5,399.7,112.7z"></path>
	<path d="M268.4,54.2c9.5-3.4,11.7-4.5,13.1-13.8l0.4-2.9H279c-0.6,0-15.3,0-26.1,1.2l-4.7,0.5c-11,1.1-16.8,1.8-18.7,5.1   c-0.7,1.3-0.7,2.8-0.1,4.1c1.8,3.8,1.5,9,0.1,18.3c-2,13.6-8.3,58.5-5.8,65.6l0.3,0.9c2.5,6.9,4.5,10.8,18.8,10.8   c12.9,0,23.5-0.6,32.5-8.2c4.4-3.7,6-7.2,4.8-10.2c-1.1-3-4.7-4.4-9.8-4.2c-2.2,0.2-4.4,0.5-6.6,0.9c-9,1.5-17,2.4-17.9-2.1   c-1.6-8.4-1-17.6-0.1-27.4c4.5-0.1,14.2-0.6,18.7-2.5c5-2.2,9.1-4.6,8.2-11.4c-0.2-2.2-1.3-4.3-3.1-5.6c-2.2-1.6-5.3-2-9-1.2   l-2.2,0.5c-3.4,0.8-7.5,1.7-11.3,1c0.4-3,1.1-9.1,2.3-16.5C253.2,57.1,261.3,56.8,268.4,54.2z"></path>
	<path d="M210.7,62c4.5-0.9,6.2,0.8,8.2,2.5c1,1.1,2.3,1.9,3.7,2.4c1.4,0.9,3.3,0.4,7.6-1.9c3-1.6,4.5-3.6,4.6-6   c0.2-2.9-1.9-5.7-6.2-8.6c-7.9-5.3-21.7-7.7-34.7,2.8c-14.8,11.9-8.4,32.4-2.4,42.6c4,6.8,8.9,13.4,13.1,19.3   c1.7,2.3,3.3,4.5,4.6,6.5l0.6,0.9c4.3,6.1,5.9,8.4,2.2,14.6c-1,1.6-2,2.5-3.1,2.6c-2,0.1-4.9-1.9-7.8-5.5c-2.1-2.6-4.4-5.2-7.5-5.2   c-2.8,0-4.7,2.2-5.9,3.8c-2.2,2.9-1.9,8,0.7,12.9c3.7,7.2,11.3,11.5,19.4,11.1c7.3,0,13.2-2.3,17.5-6.8c5.6-6.1,8-15.8,7-29.1   c-0.4-4.9-6.5-13-15.7-24.9c-5.2-6.7-10.6-13.7-12.1-17.3c-1.9-4.4-1.9-8.8-0.2-12.1C205.6,64.1,208,62.4,210.7,62z"></path>
</g>
</svg>
